<svg width="329" height="42" viewBox="0 0 329 42" fill="none" xmlns="http://www.w3.org/2000/svg">
<path d="M9.05265 42.0001C8.12363 42.0001 7.19462 41.8564 6.29533 41.5615C2.62385 40.3894 0.0374663 36.8127 0.000305545 32.8654C-0.0145587 31.0051 0.513123 29.1979 1.53876 27.6477C3.18869 25.0842 8.61415 16.683 8.81482 16.4259C11.0816 13.6053 14.3443 11.9871 17.778 11.9871C20.9441 11.9871 23.9244 13.3255 26.1689 15.7604C26.2135 15.8134 27.1499 16.9779 27.2391 17.0838C27.6627 16.562 28.2573 15.8436 28.3391 15.7529C30.591 13.3179 33.5713 11.9795 36.7225 11.9795C40.1562 11.9795 43.4189 13.5977 45.6857 16.4183C45.9012 16.683 53.0138 27.6401 53.0138 27.6401C54.3144 29.6138 54.8123 32.0109 54.411 34.4004C53.8833 37.5613 51.7206 40.2382 48.7774 41.3725C47.7146 41.7808 46.6073 41.9925 45.4924 41.9925C42.8615 41.9925 40.3643 40.828 38.64 38.7939C38.3947 38.5065 38.2833 38.1284 38.3279 37.7579C38.3724 37.3874 38.5731 37.0471 38.8778 36.8278L40.5203 35.6633C40.7433 35.5045 40.996 35.4213 41.2635 35.4213C41.6277 35.4213 41.9696 35.5801 42.2149 35.8447C43.0547 36.7749 44.2513 37.3117 45.4924 37.3117C46.2133 37.3117 46.912 37.1378 47.566 36.7975C48.7254 36.1926 49.5801 35.0583 49.8402 33.7652C50.1004 32.4797 49.8477 31.2018 49.1268 30.1733C49.1268 30.1733 42.2817 19.5489 42.148 19.3901C40.7582 17.6585 38.7886 16.6678 36.7448 16.6678C34.8645 16.6678 33.0733 17.4845 31.7058 18.9667C31.6315 19.0498 30.7917 20.0934 30.3457 20.653C33.6159 24.4944 37.2279 29.2432 37.2279 32.6914C37.2279 37.826 33.1254 42.0001 28.0864 42.0001H26.429C21.3826 42.0001 17.28 37.826 17.28 32.699C17.28 29.2432 20.8995 24.4944 24.1696 20.653C23.7088 20.0783 22.8393 18.9893 22.8021 18.944C21.4495 17.4845 19.6583 16.6678 17.778 16.6678C15.7341 16.6678 13.7646 17.6585 12.3748 19.3901C12.1816 19.6623 8.10134 25.9841 5.4109 30.1582C4.77174 31.0883 4.49675 32.1621 4.60823 33.2813C4.77917 34.9222 5.85683 36.3816 7.35812 36.9866C7.90067 37.2059 8.46551 37.3193 9.03779 37.3193C10.279 37.3193 11.4681 36.7824 12.3154 35.8523C12.5606 35.5801 12.9025 35.4288 13.2667 35.4288C13.5342 35.4288 13.7869 35.512 14.0099 35.6633L15.6598 36.8353C15.9645 37.0471 16.1578 37.3874 16.2098 37.7579C16.2544 38.1284 16.1429 38.5065 15.9051 38.7939C14.1883 40.828 11.6836 42.0001 9.04522 42.0001H9.05265ZM27.2317 24.1768C26.2506 25.3489 25.4182 26.4 24.6973 27.3755C21.9846 31.0656 21.8508 32.457 21.8508 32.699C21.8508 35.2474 23.8872 37.3193 26.3993 37.3193H28.0566C30.539 37.3193 32.5679 35.2927 32.6125 32.7746C32.6125 32.7444 32.6125 32.7217 32.6125 32.6914C32.6125 32.4495 32.4788 31.0581 29.766 27.3679C29.0302 26.3622 28.1607 25.2657 27.2391 24.1768H27.2317Z" fill="#A2E99A"/>
<path fill-rule="evenodd" clip-rule="evenodd" d="M51.8477 0C53.1029 0 54.1204 1.0339 54.1204 2.30928V4.76289H56.5353C57.7905 4.76289 58.808 5.79678 58.808 7.07216C58.808 8.34754 57.7905 9.38144 56.5353 9.38144H54.1204V11.835C54.1204 13.1104 53.1029 14.1443 51.8477 14.1443C50.5925 14.1443 49.5749 13.1104 49.5749 11.835V9.38144H47.1601C45.9049 9.38144 44.8873 8.34754 44.8873 7.07216C44.8873 5.79678 45.9049 4.76289 47.1601 4.76289L49.5749 4.76289V2.30928C49.5749 1.0339 50.5925 0 51.8477 0Z" fill="#A2E99A"/>
<path fill-rule="evenodd" clip-rule="evenodd" d="M91.3382 14.1318H88.3591C87.6782 14.1318 87.005 14.4741 86.6645 15.0807L78.826 27.7663L71.0262 15.0807C70.6471 14.5129 70.0048 14.1318 69.3316 14.1318H66.3139C65.5942 14.1318 64.9984 14.7385 64.9984 15.4929V39.2774C64.9984 40.0318 65.602 40.6385 66.3139 40.6385H68.7668C69.5173 40.6385 70.0822 40.0318 70.0822 39.2774V23.0763L77.6963 35.4585C77.882 35.7229 78.1838 35.9096 78.563 35.9096H79.1278C79.4683 35.9096 79.8088 35.7229 79.9945 35.4585L87.5699 23.0374V39.2852C87.5699 40.0396 88.1734 40.6463 88.924 40.6463H91.3382C92.0888 40.6463 92.6924 40.0396 92.6924 39.2852V15.5007C92.6924 14.7463 92.0888 14.1396 91.3382 14.1396V14.1318ZM113.531 32.9229C114.25 32.9229 114.846 32.3163 114.846 31.5929C115.109 24.8107 110.551 20.9918 105.274 20.9918C99.9969 20.9918 95.5167 25.2307 95.5167 31.0641C95.5167 36.8974 99.7029 41.1052 106.032 41.1052C109.089 41.1052 111.65 39.8918 113.306 38.2274C113.763 37.7374 113.685 36.9752 113.12 36.6329L110.969 35.3418C110.59 35.1163 110.141 35.1552 109.801 35.4585C109.05 36.1041 107.766 36.8196 106.032 36.8196C103.394 36.8196 101.281 35.4585 100.608 32.9152H113.531V32.9229ZM105.359 25.2696C107.921 25.2696 109.615 26.6696 110.11 29.2052H100.616C101.181 26.7396 103.03 25.2696 105.367 25.2696H105.359ZM133.131 14.1318H135.243C135.994 14.1318 136.597 14.7385 136.597 15.4929V39.2774C136.597 40.0318 135.994 40.6385 135.243 40.6385H133.131C132.411 40.6385 131.807 40.0318 131.807 39.2774V38.3674C130.562 39.9541 128.681 41.0974 125.702 41.0974C119.783 41.0974 116.394 36.0574 116.394 31.0563C116.394 26.0552 119.783 20.9841 125.702 20.9841C128.681 20.9841 130.562 22.1196 131.807 23.7141V15.5007C131.807 14.7463 132.411 14.1396 133.131 14.1396V14.1318ZM131.583 31.0641C131.583 28.0696 129.734 25.6118 126.461 25.6118C123.187 25.6118 121.299 28.1085 121.299 31.0641C121.299 34.0196 123.18 36.5163 126.461 36.5163C129.741 36.5163 131.583 34.0196 131.583 31.0641ZM140.366 22.8118V39.2852C140.366 40.0396 140.969 40.6463 141.72 40.6463H143.793C144.544 40.6463 145.148 40.0396 145.148 39.2852V22.8118C145.148 22.0574 144.544 21.4507 143.793 21.4507H141.72C140.969 21.4507 140.366 22.0574 140.366 22.8118ZM161.807 34.7352C161.978 34.5485 162.194 34.4241 162.419 34.3774C162.643 34.3307 162.883 34.3774 163.084 34.5018L165.498 35.9018C166.024 36.2052 166.179 36.8896 165.8 37.3796C163.989 39.6507 161.165 41.0896 157.884 41.0896C152.158 41.0896 147.786 36.6563 147.786 31.0485C147.786 25.4407 152.158 20.9763 157.884 20.9763C161.165 20.9763 163.989 22.4152 165.8 24.6863C166.179 25.1763 166.024 25.8607 165.498 26.2029L163.084 27.5641C162.666 27.8285 162.14 27.7118 161.8 27.3385C160.894 26.2807 159.579 25.5963 157.876 25.5963C154.673 25.5963 152.677 28.0618 152.677 31.0485C152.677 34.0352 154.673 36.5007 157.876 36.5007C159.571 36.5007 160.894 35.8163 161.8 34.7196L161.807 34.7352ZM185.052 32.9229C185.772 32.9229 186.367 32.3163 186.367 31.5929C186.63 24.8107 182.073 20.9918 176.796 20.9918C171.518 20.9918 167.038 25.2307 167.038 31.0641C167.038 36.8974 171.224 41.1052 177.554 41.1052C180.603 41.1052 183.172 39.8918 184.828 38.2274C185.276 37.7374 185.207 36.9752 184.642 36.6329L182.491 35.3418C182.112 35.1163 181.663 35.1552 181.322 35.4585C180.572 36.1041 179.287 36.8196 177.554 36.8196C174.915 36.8196 172.803 35.4585 172.13 32.9152H185.052V32.9229ZM176.881 25.2696C179.442 25.2696 181.137 26.6696 181.632 29.2052H172.137C172.702 26.7396 174.552 25.2696 176.888 25.2696H176.881ZM206.385 28.9796V39.2852C206.385 40.0396 205.782 40.6463 205.031 40.6463H202.957C202.207 40.6463 201.603 40.0396 201.603 39.2852V29.9674C201.603 27.5018 200.582 25.6507 197.874 25.6507C195.165 25.6507 193.804 27.7352 193.804 29.9674V39.2852C193.804 39.6663 193.649 40.0163 193.401 40.2574C193.161 40.4985 192.836 40.6463 192.48 40.6463H190.368C189.648 40.6463 189.052 40.0396 189.052 39.2852V22.8118C189.052 22.0574 189.656 21.4507 190.368 21.4507H192.48C193.2 21.4507 193.796 22.0574 193.796 22.8118V23.7996C194.848 22.2441 196.581 20.9996 199.375 20.9996C204.196 20.9996 206.385 24.9041 206.385 28.9952V28.9796ZM216.143 25.8374H218.859C219.609 25.8374 220.213 25.2307 220.213 24.5152V22.8118C220.213 22.0574 219.609 21.4507 218.859 21.4507H216.143V18.7985C216.143 18.0441 215.539 17.4374 214.789 17.4374H212.676C211.926 17.4374 211.361 18.0441 211.361 18.7985V21.4507H209.628C208.916 21.4507 208.312 22.0574 208.312 22.8118V24.5152C208.312 25.2385 208.916 25.8374 209.628 25.8374H211.361V33.6385C211.361 37.6129 213.318 40.9107 218.217 40.9107C218.673 40.9107 219.006 40.9107 219.346 40.8718C219.834 40.7941 220.213 40.3818 220.213 39.8529V37.3563C220.213 36.7885 219.725 36.3374 219.161 36.3374H219.083C216.445 36.3374 216.143 35.0463 216.143 32.8529V25.8452V25.8374ZM241.237 31.5929C241.237 32.3163 240.633 32.9229 239.921 32.9229H226.999C227.68 35.4585 229.785 36.8274 232.423 36.8274C234.157 36.8274 235.441 36.1118 236.192 35.4663C236.463 35.2252 236.811 35.1474 237.136 35.2485C237.213 35.2718 237.291 35.3107 237.36 35.3496L239.511 36.6407C240.076 36.9829 240.154 37.7374 239.697 38.2352C238.041 39.8996 235.48 41.1129 232.423 41.1129C226.094 41.1129 221.908 36.9052 221.908 31.0718C221.908 25.2385 226.396 20.9996 231.665 20.9996C236.935 20.9996 241.5 24.8263 241.237 31.6007V31.5929ZM236.494 29.2129C236.006 26.6774 234.311 25.2774 231.742 25.2774C229.406 25.2774 227.564 26.7552 226.991 29.2129H236.486H236.494ZM255.064 22.0885C255.064 21.4429 254.538 20.9918 253.935 21.0696C251.938 21.4118 249.903 22.5863 248.696 24.5541V22.8118C248.696 22.0574 248.093 21.4507 247.381 21.4507H245.268C244.518 21.4507 243.914 22.0574 243.914 22.8118V39.2852C243.914 40.0396 244.518 40.6463 245.268 40.6463H247.381C248.1 40.6463 248.696 40.0396 248.696 39.2852V32.7363C248.696 29.3996 249.338 25.9929 254.051 26.1485C254.616 26.1485 255.072 25.6974 255.072 25.1218V22.0885H255.064Z" fill="#2A356D"/>
<path d="M279.091 23.1783C279.091 28.7317 275.206 32.4106 268.877 32.4106H265.108V39.3406C265.108 40.1028 264.497 40.7172 263.739 40.7172H261.301C260.543 40.7172 259.932 40.1028 259.932 39.3406V15.2839C259.932 14.5217 260.543 13.9072 261.301 13.9072H268.884C275.206 13.9072 279.098 17.625 279.098 23.1783H279.091ZM273.829 23.1783C273.829 20.3472 272.003 18.7372 268.877 18.7372H265.108V27.5806H268.877C272.003 27.5806 273.829 25.9706 273.829 23.1783Z" fill="#A2E99A"/>
<path d="M284.081 13.9072H286.217C286.944 13.9072 287.548 14.5217 287.548 15.2839V39.3328C287.548 40.095 286.936 40.7094 286.217 40.7094H284.081C283.323 40.7094 282.711 40.095 282.711 39.3328V15.2839C282.711 14.5217 283.323 13.9072 284.081 13.9072Z" fill="#A2E99A"/>
<path d="M308.27 21.2959C309.028 21.2959 309.64 21.9103 309.64 22.6726V39.3326C309.64 40.0948 309.028 40.7092 308.27 40.7092H306.134C305.407 40.7092 304.804 40.0948 304.804 39.3326V38.337C303.736 39.9081 301.987 41.1681 299.201 41.1681C294.326 41.1681 292.113 37.2248 292.113 33.1259V22.6726C292.113 21.9103 292.725 21.2959 293.444 21.2959H295.58C296.307 21.2959 296.911 21.9103 296.911 22.6726V32.0915C296.911 34.5803 297.979 36.4548 300.679 36.4548C303.535 36.4548 304.796 34.347 304.796 32.0915V22.6726C304.796 21.9103 305.407 21.2959 306.127 21.2959H308.262H308.27Z" fill="#A2E99A"/>
<path d="M329 34.7436C329 38.5314 326.253 41.1758 320.806 41.1758C317.563 41.1758 314.329 40.0636 312.959 37.5747C312.658 37.038 312.921 36.3147 313.571 36.1202L316.279 35.2802C316.735 35.1247 317.192 35.3191 317.463 35.7391C317.881 36.4314 318.871 37.1158 320.891 37.1158C322.91 37.1158 324.056 36.3536 324.056 35.0469C324.056 33.2502 321.278 33.2891 318.987 32.8225C315.25 32.0602 313.346 30.2169 313.346 26.9269C313.346 23.248 316.434 20.8369 320.929 20.8369C323.862 20.8369 326.717 22.0969 327.94 24.6636C328.203 25.2391 327.863 25.9236 327.251 26.0791L324.775 26.6936C324.357 26.8102 323.901 26.6158 323.669 26.2347C323.212 25.5036 322.338 24.9358 320.922 24.9358C319.506 24.9358 318.066 25.4336 318.066 26.888C318.066 28.6147 320.659 28.7625 322.183 29.1125C326.942 30.1469 329 31.4458 329 34.7436Z" fill="#A2E99A"/>
</svg>
