<svg width="329" height="42" viewBox="0 0 329 42" fill="none" xmlns="http://www.w3.org/2000/svg">
<path d="M9.05265 42.0001C8.12363 42.0001 7.19462 41.8564 6.29533 41.5615C2.62385 40.3894 0.0374663 36.8127 0.000305545 32.8654C-0.0145587 31.0051 0.513123 29.1979 1.53876 27.6477C3.18869 25.0842 8.61415 16.683 8.81482 16.4259C11.0816 13.6053 14.3443 11.9871 17.778 11.9871C20.9441 11.9871 23.9244 13.3255 26.1689 15.7604C26.2135 15.8134 27.1499 16.9779 27.2391 17.0838C27.6627 16.562 28.2573 15.8436 28.3391 15.7529C30.591 13.3179 33.5713 11.9795 36.7225 11.9795C40.1562 11.9795 43.4189 13.5977 45.6857 16.4183C45.9012 16.683 53.0138 27.6401 53.0138 27.6401C54.3144 29.6138 54.8123 32.0109 54.411 34.4004C53.8833 37.5613 51.7206 40.2382 48.7774 41.3725C47.7146 41.7808 46.6073 41.9925 45.4924 41.9925C42.8615 41.9925 40.3643 40.828 38.64 38.7939C38.3947 38.5065 38.2833 38.1284 38.3279 37.7579C38.3724 37.3874 38.5731 37.0471 38.8778 36.8278L40.5203 35.6633C40.7433 35.5045 40.996 35.4213 41.2635 35.4213C41.6277 35.4213 41.9696 35.5801 42.2149 35.8447C43.0547 36.7749 44.2513 37.3117 45.4924 37.3117C46.2133 37.3117 46.912 37.1378 47.566 36.7975C48.7254 36.1926 49.5801 35.0583 49.8402 33.7652C50.1004 32.4797 49.8477 31.2018 49.1268 30.1733C49.1268 30.1733 42.2817 19.5489 42.148 19.3901C40.7582 17.6585 38.7886 16.6678 36.7448 16.6678C34.8645 16.6678 33.0733 17.4845 31.7058 18.9667C31.6315 19.0498 30.7917 20.0934 30.3457 20.653C33.6159 24.4944 37.2279 29.2432 37.2279 32.6914C37.2279 37.826 33.1254 42.0001 28.0864 42.0001H26.429C21.3826 42.0001 17.28 37.826 17.28 32.699C17.28 29.2432 20.8995 24.4944 24.1696 20.653C23.7088 20.0783 22.8393 18.9893 22.8021 18.944C21.4495 17.4845 19.6583 16.6678 17.778 16.6678C15.7341 16.6678 13.7646 17.6585 12.3748 19.3901C12.1816 19.6623 8.10134 25.9841 5.4109 30.1582C4.77174 31.0883 4.49675 32.1621 4.60823 33.2813C4.77917 34.9222 5.85683 36.3816 7.35812 36.9866C7.90067 37.2059 8.46551 37.3193 9.03779 37.3193C10.279 37.3193 11.4681 36.7824 12.3154 35.8523C12.5606 35.5801 12.9025 35.4288 13.2667 35.4288C13.5342 35.4288 13.7869 35.512 14.0099 35.6633L15.6598 36.8353C15.9645 37.0471 16.1578 37.3874 16.2098 37.7579C16.2544 38.1284 16.1429 38.5065 15.9051 38.7939C14.1883 40.828 11.6836 42.0001 9.04522 42.0001H9.05265ZM27.2317 24.1768C26.2506 25.3489 25.4182 26.4 24.6973 27.3755C21.9846 31.0656 21.8508 32.457 21.8508 32.699C21.8508 35.2474 23.8872 37.3193 26.3993 37.3193H28.0566C30.539 37.3193 32.5679 35.2927 32.6125 32.7746C32.6125 32.7444 32.6125 32.7217 32.6125 32.6914C32.6125 32.4495 32.4788 31.0581 29.766 27.3679C29.0302 26.3622 28.1607 25.2657 27.2391 24.1768H27.2317Z" fill="#A2E99A"/>
<path fill-rule="evenodd" clip-rule="evenodd" d="M51.8477 0C53.1029 0 54.1205 1.0339 54.1205 2.30928V4.76289H56.5353C57.7905 4.76289 58.808 5.79678 58.808 7.07216C58.808 8.34754 57.7905 9.38144 56.5353 9.38144H54.1205V11.835C54.1205 13.1104 53.1029 14.1443 51.8477 14.1443C50.5925 14.1443 49.5749 13.1104 49.5749 11.835V9.38144H47.1601C45.9049 9.38144 44.8873 8.34754 44.8873 7.07216C44.8873 5.79678 45.9049 4.76289 47.1601 4.76289L49.5749 4.76289V2.30928C49.5749 1.0339 50.5925 0 51.8477 0Z" fill="#A2E99A"/>
</svg>
